<svg width="70px" height="72px" viewBox="0 0 70 72" version="1.1" xmlns="http://www.w3.org/2000/svg" xmlns:xlink="http://www.w3.org/1999/xlink">
    <g stroke="none" stroke-width="1" fill="none" fill-rule="evenodd">
        <path d="M28.075,0.5 C20.887,0.5 13.7,3.24 8.203,8.692 C-2.734,19.624 -2.734,37.35 8.203,48.283 C18.773,58.796 35.684,59.159 46.705,49.373 L68.634,71.266 C68.945,71.574 69.48,71.574 69.762,71.294 C70.072,71.015 70.072,70.455 69.79,70.176 L47.833,48.283 C47.861,48.255 47.861,48.255 47.89,48.255 C58.827,37.323 58.855,19.625 47.918,8.692 C42.449,3.24 35.262,0.5 28.075,0.5 L28.075,0.5 L28.075,0.5 Z M28.075,2.066 C34.84,2.066 41.632,4.638 46.79,9.811 C57.135,20.128 57.135,36.82 46.79,47.137 C36.446,57.454 19.704,57.454 9.359,47.137 C-0.986,36.82 -0.986,20.128 9.359,9.811 C14.517,4.638 21.31,2.066 28.075,2.066 L28.075,2.066 L28.075,2.066 Z" fill="#000000"></path>
    </g>
</svg>