<svg width="74" height="75" viewBox="0 0 74 75" xmlns="http://www.w3.org/2000/svg" xmlns:xlink="http://www.w3.org/1999/xlink"><defs><circle id="a" cx="37" cy="37.471" r="37"/></defs><g fill="none" fill-rule="evenodd"><mask id="b" fill="#fff"><use xlink:href="#a"/></mask><g mask="url(#b)" stroke="#E3E4E6" stroke-width="4" fill="#FFF"><circle cx="37" cy="37" r="37" transform="translate(0 .471)"/></g><path d="M73 37.5c0-19.88-16.12-36-36-36" stroke="#49B882" stroke-width="2" mask="url(#b)"><animateTransform attributeName="transform" type="rotate" from="0 37 37" to="360 37 37" dur="2s" repeatCount="indefinite"/></path><path d="M51.34 28.706c3.89 0 6.992 3.157 6.992 6.99 0 3.665-2.876 6.71-6.54 6.935-.17 0-.282-.113-.282-.282v-2.086c0-.169.113-.282.282-.282 2.198-.225 3.89-2.086 3.89-4.284 0-2.368-1.973-4.285-4.341-4.285h-2.594l-.169-1.184a5.642 5.642 0 0 0-5.637-5.13c-1.466 0-2.876.62-3.89 1.578-.113.113-.226.113-.395.057a13.043 13.043 0 0 0-1.973-1.015c-.226-.057-.282-.226-.113-.395 1.579-1.804 3.834-2.875 6.37-2.875 3.834 0 7.16 2.65 8.119 6.258h.282zM25.52 49.058c-4.285 0-7.78-3.495-7.78-7.78a7.732 7.732 0 0 1 6.032-7.555c.902-4.284 4.68-7.329 9.133-7.329a9.361 9.361 0 0 1 9.077 7.104h.508c4.284 0 7.78 3.495 7.78 7.78s-3.496 7.78-7.78 7.78H25.52zm.62-13.249c0 .226-.056.282-.282.282l-.845.113c-2.594.226-4.623 2.424-4.623 5.074 0 2.819 2.311 5.074 5.13 5.074h16.97c2.818 0 5.13-2.255 5.13-5.074s-2.312-5.074-5.13-5.074h-2.537c-.17 0-.282-.113-.282-.282l-.113-.902c-.395-3.439-3.214-5.976-6.653-5.976-3.439 0-6.314 2.537-6.652 5.976l-.113.79z" fill="#6B7078"/></g></svg>